<?xml version="1.0" encoding="UTF-8"?>
<svg xmlns="http://www.w3.org/2000/svg" xmlns:xlink="http://www.w3.org/1999/xlink" width="256px" height="256px" viewBox="0 0 256 256" version="1.1">
<defs>
<linearGradient id="linear0" gradientUnits="userSpaceOnUse" x1="0" y1="1" x2="1" y2="0" gradientTransform="matrix(149.636719,0,0,166.714844,60.539062,53.023438)">
<stop offset="0" style="stop-color:rgb(97.254902%,45.882353%,21.568627%);stop-opacity:1;"/>
<stop offset="1" style="stop-color:rgb(93.333333%,66.27451%,21.568627%);stop-opacity:1;"/>
</linearGradient>
</defs>
<g id="surface1">
<path style=" stroke:none;fill-rule:nonzero;fill:url(#linear0);" d="M 161.792969 76.03125 C 169.472656 73.726562 171.519531 87.808594 181.503906 99.070312 C 191.742188 110.59375 209.664062 119.296875 210.175781 128.257812 C 210.433594 137.214844 193.023438 146.175781 185.089844 161.535156 C 177.152344 176.640625 178.945312 197.886719 171.007812 206.847656 C 163.070312 215.808594 145.40625 212.480469 126.976562 214.273438 C 108.289062 216.320312 88.574219 223.488281 75.519531 217.34375 C 62.71875 211.199219 56.320312 192 63.488281 175.105469 C 70.65625 157.953125 90.878906 142.847656 93.953125 129.792969 C 96.769531 116.480469 82.175781 104.703125 75.265625 88.0625 C 68.351562 71.425781 69.375 49.664062 79.359375 53.246094 C 89.601562 57.089844 108.800781 86.015625 124.929688 91.390625 C 141.054688 96.511719 154.113281 78.335938 161.792969 76.03125 Z M 161.792969 76.03125 "/>
</g>
</svg>
